<?xml version="1.0" encoding="UTF-8" standalone="no"?>
<!-- Created with Inkscape (http://www.inkscape.org/) -->

<svg xmlns:dc="http://purl.org/dc/elements/1.1/"
   xmlns:cc="http://creativecommons.org/ns#"
   xmlns:rdf="http://www.w3.org/1999/02/22-rdf-syntax-ns#"
   xmlns:svg="http://www.w3.org/2000/svg"
   xmlns="http://www.w3.org/2000/svg"
   xmlns:sodipodi="http://sodipodi.sourceforge.net/DTD/sodipodi-0.dtd"
   xmlns:inkscape="http://www.inkscape.org/namespaces/inkscape" width="128" height="128" viewBox="0 0 33.866666 33.866667" version="1.1" id="svg8" inkscape:version="0.92.5 (2060ec1f9f, 2020-04-08)" sodipodi:docname="icon_cube.svg" inkscape:export-filename="/home/icode331/dev/firefox-containers-helper/icons/icon_cube.png" inkscape:export-xdpi="96" inkscape:export-ydpi="96">
   <defs id="defs2">
      <inkscape:perspective sodipodi:type="inkscape:persp3d" inkscape:vp_x="-21.87574 : 89.528388 : 1" inkscape:vp_y="0 : 7631.1777 : 0" inkscape:vp_z="286.90977 : 85.214741 : 1" inkscape:persp3d-origin="135.66526 : 46.45462 : 1" id="perspective64" />
      <inkscape:perspective sodipodi:type="inkscape:persp3d" inkscape:vp_x="49.758849 : -22.91865 : 1" inkscape:vp_y="0 : 7565.1324 : 0" inkscape:vp_z="258.87904 : 13.177122 : 1" inkscape:persp3d-origin="121.62754 : 46.380695 : 1" id="perspective10" />
   </defs>
   <sodipodi:namedview id="base" pagecolor="#ffffff" bordercolor="#666666" borderopacity="1.0" inkscape:pageopacity="0" inkscape:pageshadow="2" inkscape:zoom="3.959798" inkscape:cx="51.620324" inkscape:cy="80.489816" inkscape:document-units="mm" inkscape:current-layer="layer1" showgrid="false" units="px" inkscape:pagecheckerboard="true" inkscape:window-width="1920" inkscape:window-height="1016" inkscape:window-x="0" inkscape:window-y="27" inkscape:window-maximized="1" fit-margin-top="0" fit-margin-left="0" fit-margin-right="0" fit-margin-bottom="0" />
   <metadata id="metadata5">
      <rdf:RDF>
         <cc:Work rdf:about="">
            <dc:format>image/svg+xml</dc:format>
            <dc:type rdf:resource="http://purl.org/dc/dcmitype/StillImage" />
            <dc:title></dc:title>
         </cc:Work>
      </rdf:RDF>
   </metadata>
   <g inkscape:label="Layer 1" inkscape:groupmode="layer" id="layer1" transform="translate(-2.4589768,-332.26636)" style="display:inline">
      <g sodipodi:type="inkscape:box3d" id="g12" inkscape:perspectiveID="#perspective10" inkscape:corner0="2.1778927 : -0.01985892 : 0 : 1" inkscape:corner7="1.7287055 : -0.025829661 : 0.22491536 : 1">
         <path sodipodi:type="inkscape:box3dside" id="path14" style="fill:#353564;fill-rule:evenodd;stroke:none;stroke-width:8.81345463;stroke-linejoin:round" inkscape:box3dsidetype="6" d="m 74.833031,481.87385 v 14.21365 l 12.327418,-5.00869 v -13.27417 z" points="74.833031,496.0875 87.160449,491.07881 87.160449,477.80464 74.833031,481.87385 " />
         <path sodipodi:type="inkscape:box3dside" id="path22" style="fill:#afafde;fill-rule:evenodd;stroke:none;stroke-width:8.81345463;stroke-linejoin:round" inkscape:box3dsidetype="13" d="m 74.833031,496.0875 3.722813,6.53229 13.918685,-6.26784 -5.31408,-5.27314 z" points="78.555844,502.61979 92.474529,496.35195 87.160449,491.07881 74.833031,496.0875 " />
         <path sodipodi:type="inkscape:box3dside" id="path24" style="fill:#e9e9ff;fill-rule:evenodd;stroke:none;stroke-width:8.81345463;stroke-linejoin:round" inkscape:box3dsidetype="11" d="m 87.160449,477.80464 5.31408,3.2544 v 15.29291 l -5.31408,-5.27314 z" points="92.474529,481.05904 92.474529,496.35195 87.160449,491.07881 87.160449,477.80464 " />
         <path sodipodi:type="inkscape:box3dside" id="path16" style="fill:#4d4d9f;fill-rule:evenodd;stroke:none;stroke-width:8.81345463;stroke-linejoin:round" inkscape:box3dsidetype="5" d="m 74.833031,481.87385 3.722813,4.19251 13.918685,-5.00732 -5.31408,-3.2544 z" points="78.555844,486.06636 92.474529,481.05904 87.160449,477.80464 74.833031,481.87385 " />
         <path sodipodi:type="inkscape:box3dside" id="path20" style="fill:#d7d7ff;fill-rule:evenodd;stroke:none;stroke-width:8.81345463;stroke-linejoin:round" inkscape:box3dsidetype="14" d="m 78.555844,486.06636 v 16.55343 l 13.918685,-6.26784 v -15.29291 z" points="78.555844,502.61979 92.474529,496.35195 92.474529,481.05904 78.555844,486.06636 " />
         <path sodipodi:type="inkscape:box3dside" id="path18" style="fill:#8686bf;fill-rule:evenodd;stroke:none;stroke-width:8.81345463;stroke-linejoin:round" inkscape:box3dsidetype="3" d="m 74.833031,481.87385 3.722813,4.19251 v 16.55343 l -3.722813,-6.53229 z" points="78.555844,486.06636 78.555844,502.61979 74.833031,496.0875 74.833031,481.87385 " />
      </g>
      <path style="fill:#b3b3b3;fill-opacity:1;stroke-width:0.05246301" d="m 12.763681,356.97693 v -9.18461 l 0.196736,-0.0524 c 0.108208,-0.0289 2.616593,-0.63395 5.574193,-1.34471 14.814225,-3.56009 17.299644,-4.15683 17.457064,-4.19137 l 0.170503,-0.0374 -2.93e-4,8.49006 -2.94e-4,8.49005 -11.633256,3.48275 c -6.39829,1.9155 -11.662765,3.49388 -11.698833,3.50751 -0.05231,0.0198 -0.06558,-1.8339 -0.06558,-9.15984 z" id="path4136" inkscape:connector-curvature="0" />
      <path style="fill:#808080;fill-opacity:1;stroke-width:0.05246301" d="m 7.7401774,359.24838 -4.9972716,-6.84728 0.013287,-7.84891 0.013286,-7.84892 4.9971005,5.54468 4.9971017,5.54469 v 9.15261 c 0,5.03393 -0.0059,9.15211 -0.01311,9.15151 -0.0072,-5.9e-4 -2.261887,-3.08236 -5.0103877,-6.84838 z" id="path4138" inkscape:connector-curvature="0" />
      <path style="fill:#666666;fill-opacity:1;stroke-width:0.05246301" d="M 11.077437,345.88568 C 10.16443,344.869 7.9288268,342.38527 6.1094294,340.36626 4.2900321,338.34727 2.8100853,336.68672 2.820659,336.67614 c 0.010571,-0.0111 4.720871,-0.94688 10.467328,-2.08067 l 10.448103,-2.06145 6.180867,4.781 c 3.399476,2.62956 6.165834,4.7953 6.147464,4.81276 -0.01837,0.0174 -2.807381,0.69636 -6.197803,1.50869 -3.39042,0.81234 -8.56065,2.05221 -11.489396,2.75526 -2.928747,0.70306 -5.39582,1.29272 -5.482384,1.31038 -0.15174,0.031 -0.216962,-0.0342 -1.817401,-1.81643 z" id="path4140" inkscape:connector-curvature="0" />
   </g>
   <g inkscape:groupmode="layer" id="layer2" inkscape:label="Layer 2" style="display:inline" transform="translate(-2.4589768,-69.133042)">
      <path id="dollar" style="fill:#51cd00;fill-opacity:1;stroke-width:0.23802677" d="m 7.3931928,82.711842 c -1.7163288,-2.214734 -3.085535,-1.836843 -3.085535,0.719193 0,2.614765 1.3692062,6.467491 3.0469659,8.632456 1.6777597,2.164965 3.0469663,1.845837 3.0469663,-0.768928 0.03858,-2.506224 -1.330638,-6.417723 -3.0083972,-8.582677 z m 0.1735613,7.598164 v 0.470065 c 0,0.117525 -0.077138,0.0473 -0.1349921,-0.02732 -0.077138,-0.09949 -0.1349922,-0.232928 -0.1349922,-0.321094 v -0.470064 c -0.617107,-0.855051 -0.9642297,-1.773062 -1.0606527,-2.631966 0,-0.05874 0,-0.05874 0,-0.117513 0,-0.146895 0.077138,-0.164872 0.1735613,-0.04031 0.03857,0.04975 0.03857,0.04975 0.077138,0.0996 0.096423,0.12442 0.1735613,0.282696 0.2121304,0.47937 0.077138,0.628374 0.2314152,1.091866 0.6556764,1.668706 v -1.997794 c -0.6942455,-1.013361 -1.0220836,-1.847714 -1.0220836,-2.67033 0,-0.881378 0.4821148,-0.729343 1.0027988,-0.116248 v -0.32317 c 0,-0.117524 0.077138,-0.0473 0.1349922,0.02732 0.077138,0.09949 0.1349922,0.232928 0.1349922,0.321094 v 0.32317 c 0.5206841,0.789393 0.8485222,1.623735 0.9642298,2.39001 0,0.05874 0,0.05874 0,0.117513 0,0.146906 -0.077138,0.106154 -0.1349922,0.09016 -0.03857,-0.04975 -0.03857,-0.04975 -0.077138,-0.0996 C 8.2802842,87.38212 8.2224302,87.248683 8.183861,87.051999 8.1067228,86.54116 7.9524459,86.077669 7.6053232,85.570983 v 1.762757 c 0.617107,1.001956 1.0606526,1.89747 1.0606526,2.896373 0,1.028273 -0.520684,0.826458 -1.0992217,0.07995 z M 6.6603782,85.174227 c 0,0.470065 0.1349922,0.908661 0.617107,1.677689 V 85.11854 C 6.911078,84.704473 6.6603782,84.704151 6.6603782,85.17428 Z m 0.9063759,2.726682 v 1.88027 c 0.4435457,0.513604 0.6942454,0.543285 0.6942454,-0.0443 C 8.2417155,89.036263 7.9717306,88.5116 7.5667541,87.900903 Z" inkscape:connector-curvature="0" />
      <ellipse id="circle-6" cx="-3.838886" cy="79.707176" style="fill:#38adff;fill-opacity:1;fill-rule:evenodd;stroke-width:0.32508719" rx="6.3889194" ry="4.2345991" transform="matrix(1,0,0.28385182,0.95886816,0,0)" />
      <path id="briefcase-5" d="m 27.477768,85.324631 c 0,-0.564336 -0.510209,-0.965359 -1.190488,-0.801346 l -3.699019,0.891808 c -0.595243,0.143508 -1.147971,0.760485 -1.147971,1.365132 v 1.773635 l -0.765315,0.184513 v 7.900734 l 7.568107,-1.82462 v -7.860424 l -0.765314,0.184513 z m -0.977901,2.049709 -4.166711,1.004566 v -1.813943 c 0,-0.16124 0.08504,-0.222051 0.212587,-0.252804 l 3.699019,-0.891808 c 0.170067,-0.041 0.212587,0.02937 0.212587,0.150301 v 1.813943 z m -8.078314,1.947627 1.147971,-0.276768 v 7.900732 l -1.147971,0.27677 c -0.382659,0.09225 -0.765314,-0.178288 -0.765314,-0.541067 v -6.449577 c 0,-0.443407 0.382655,-0.817833 0.765314,-0.91009 z M 31.26182,86.951844 v 6.449578 c 0,0.362788 -0.297623,0.79733 -0.765314,0.910088 l -1.147972,0.27677 v -7.900734 l 1.147972,-0.276769 c 0.467691,-0.11277 0.765314,0.09766 0.765314,0.541067 z" inkscape:connector-curvature="0" style="fill:#ff9f00;fill-opacity:1;stroke-width:0.41398939" />
   </g>
</svg>
